<?xml version="1.0" encoding="UTF-8" standalone="no"?>
<!DOCTYPE svg PUBLIC "-//W3C//DTD SVG 1.1//EN"
 "http://www.w3.org/Graphics/SVG/1.1/DTD/svg11.dtd">
<!-- Generated by graphviz version 2.43.0 (0)
 -->
<!-- Title: snakemake_dag Pages: 1 -->
<svg width="480pt" height="1140pt"
 viewBox="0.00 0.00 480.00 1140.00" xmlns="http://www.w3.org/2000/svg" xmlns:xlink="http://www.w3.org/1999/xlink">
<g id="graph0" class="graph" transform="scale(1 1) rotate(0) translate(4 1136)">
<title>snakemake_dag</title>
<polygon fill="white" stroke="transparent" points="-4,4 -4,-1136 476,-1136 476,4 -4,4"/>
<!-- 0 -->
<g id="node1" class="node">
<title>0</title>
<path fill="none" stroke="#bed856" stroke-width="2" d="M250,-36C250,-36 220,-36 220,-36 214,-36 208,-30 208,-24 208,-24 208,-12 208,-12 208,-6 214,0 220,0 220,0 250,0 250,0 256,0 262,-6 262,-12 262,-12 262,-24 262,-24 262,-30 256,-36 250,-36"/>
<text text-anchor="middle" x="235" y="-15.5" font-family="sans" font-size="10.00">all</text>
</g>
<!-- 1 -->
<g id="node2" class="node">
<title>1</title>
<path fill="none" stroke="#56d8a2" stroke-width="2" d="M288,-324C288,-324 224,-324 224,-324 218,-324 212,-318 212,-312 212,-312 212,-300 212,-300 212,-294 218,-288 224,-288 224,-288 288,-288 288,-288 294,-288 300,-294 300,-300 300,-300 300,-312 300,-312 300,-318 294,-324 288,-324"/>
<text text-anchor="middle" x="256" y="-303.5" font-family="sans" font-size="10.00">BarPlotResults</text>
</g>
<!-- 1&#45;&gt;0 -->
<g id="edge1" class="edge">
<title>1&#45;&gt;0</title>
<path fill="none" stroke="grey" stroke-width="2" d="M247.28,-287.83C242.63,-277.69 237.38,-264.44 235,-252 221.02,-178.74 227.17,-90.15 231.72,-46.31"/>
<polygon fill="grey" stroke="grey" stroke-width="2" points="235.22,-46.48 232.82,-36.16 228.26,-45.72 235.22,-46.48"/>
</g>
<!-- 19 -->
<g id="node20" class="node">
<title>19</title>
<path fill="none" stroke="#d85656" stroke-width="2" d="M346,-252C346,-252 256,-252 256,-252 250,-252 244,-246 244,-240 244,-240 244,-228 244,-228 244,-222 250,-216 256,-216 256,-216 346,-216 346,-216 352,-216 358,-222 358,-228 358,-228 358,-240 358,-240 358,-246 352,-252 346,-252"/>
<text text-anchor="middle" x="301" y="-231.5" font-family="sans" font-size="10.00">FindBestParameters</text>
</g>
<!-- 1&#45;&gt;19 -->
<g id="edge28" class="edge">
<title>1&#45;&gt;19</title>
<path fill="none" stroke="grey" stroke-width="2" d="M267.12,-287.7C272.36,-279.56 278.7,-269.69 284.48,-260.7"/>
<polygon fill="grey" stroke="grey" stroke-width="2" points="287.54,-262.41 290,-252.1 281.65,-258.62 287.54,-262.41"/>
</g>
<!-- 2 -->
<g id="node3" class="node">
<title>2</title>
<path fill="none" stroke="#d89556" stroke-width="2" d="M252,-412C252,-412 206,-412 206,-412 200,-412 194,-406 194,-400 194,-400 194,-372 194,-372 194,-366 200,-360 206,-360 206,-360 252,-360 252,-360 258,-360 264,-366 264,-372 264,-372 264,-400 264,-400 264,-406 258,-412 252,-412"/>
<text text-anchor="middle" x="229" y="-400" font-family="sans" font-size="10.00">RunPepGM</text>
<text text-anchor="middle" x="229" y="-389" font-family="sans" font-size="10.00">Prior: 0.5</text>
<text text-anchor="middle" x="229" y="-378" font-family="sans" font-size="10.00">alpha: 0.7</text>
<text text-anchor="middle" x="229" y="-367" font-family="sans" font-size="10.00">beta: 0.3</text>
</g>
<!-- 2&#45;&gt;1 -->
<g id="edge7" class="edge">
<title>2&#45;&gt;1</title>
<path fill="none" stroke="grey" stroke-width="2" d="M237.69,-359.89C240.54,-351.66 243.72,-342.48 246.62,-334.1"/>
<polygon fill="grey" stroke="grey" stroke-width="2" points="250.01,-335.01 249.97,-324.41 243.39,-332.72 250.01,-335.01"/>
</g>
<!-- 3 -->
<g id="node4" class="node">
<title>3</title>
<path fill="none" stroke="#56d8c1" stroke-width="2" stroke-dasharray="5,2" d="M335,-484C335,-484 189,-484 189,-484 183,-484 177,-478 177,-472 177,-472 177,-460 177,-460 177,-454 183,-448 189,-448 189,-448 335,-448 335,-448 341,-448 347,-454 347,-460 347,-460 347,-472 347,-472 347,-478 341,-484 335,-484"/>
<text text-anchor="middle" x="262" y="-469" font-family="sans" font-size="10.00">CreateFactorGraph</text>
<text text-anchor="middle" x="262" y="-458" font-family="sans" font-size="10.00">DBname: SIHUMI_DB1UNIPROT</text>
</g>
<!-- 3&#45;&gt;2 -->
<g id="edge8" class="edge">
<title>3&#45;&gt;2</title>
<path fill="none" stroke="grey" stroke-width="2" d="M254.68,-447.69C251.41,-439.96 247.43,-430.57 243.6,-421.5"/>
<polygon fill="grey" stroke="grey" stroke-width="2" points="246.81,-420.1 239.69,-412.26 240.36,-422.83 246.81,-420.1"/>
</g>
<!-- 14 -->
<g id="node15" class="node">
<title>14</title>
<path fill="none" stroke="#d89556" stroke-width="2" stroke-dasharray="5,2" d="M340,-412C340,-412 294,-412 294,-412 288,-412 282,-406 282,-400 282,-400 282,-372 282,-372 282,-366 288,-360 294,-360 294,-360 340,-360 340,-360 346,-360 352,-366 352,-372 352,-372 352,-400 352,-400 352,-406 346,-412 340,-412"/>
<text text-anchor="middle" x="317" y="-400" font-family="sans" font-size="10.00">RunPepGM</text>
<text text-anchor="middle" x="317" y="-389" font-family="sans" font-size="10.00">Prior: 0.5</text>
<text text-anchor="middle" x="317" y="-378" font-family="sans" font-size="10.00">alpha: 0.7</text>
<text text-anchor="middle" x="317" y="-367" font-family="sans" font-size="10.00">beta: 0.4</text>
</g>
<!-- 3&#45;&gt;14 -->
<g id="edge22" class="edge">
<title>3&#45;&gt;14</title>
<path fill="none" stroke="grey" stroke-width="2" d="M274.21,-447.69C279.83,-439.72 286.7,-429.97 293.28,-420.64"/>
<polygon fill="grey" stroke="grey" stroke-width="2" points="296.29,-422.45 299.19,-412.26 290.57,-418.41 296.29,-422.45"/>
</g>
<!-- 16 -->
<g id="node17" class="node">
<title>16</title>
<path fill="none" stroke="#d89556" stroke-width="2" d="M72,-412C72,-412 26,-412 26,-412 20,-412 14,-406 14,-400 14,-400 14,-372 14,-372 14,-366 20,-360 26,-360 26,-360 72,-360 72,-360 78,-360 84,-366 84,-372 84,-372 84,-400 84,-400 84,-406 78,-412 72,-412"/>
<text text-anchor="middle" x="49" y="-400" font-family="sans" font-size="10.00">RunPepGM</text>
<text text-anchor="middle" x="49" y="-389" font-family="sans" font-size="10.00">Prior: 0.5</text>
<text text-anchor="middle" x="49" y="-378" font-family="sans" font-size="10.00">alpha: 0.8</text>
<text text-anchor="middle" x="49" y="-367" font-family="sans" font-size="10.00">beta: 0.3</text>
</g>
<!-- 3&#45;&gt;16 -->
<g id="edge24" class="edge">
<title>3&#45;&gt;16</title>
<path fill="none" stroke="grey" stroke-width="2" d="M200.38,-447.91C168.97,-438.53 130.46,-425.97 97,-412 95.81,-411.5 94.6,-410.98 93.39,-410.45"/>
<polygon fill="grey" stroke="grey" stroke-width="2" points="94.61,-407.16 84.06,-406.12 91.66,-413.51 94.61,-407.16"/>
</g>
<!-- 18 -->
<g id="node19" class="node">
<title>18</title>
<path fill="none" stroke="#d89556" stroke-width="2" stroke-dasharray="5,2" d="M164,-412C164,-412 118,-412 118,-412 112,-412 106,-406 106,-400 106,-400 106,-372 106,-372 106,-366 112,-360 118,-360 118,-360 164,-360 164,-360 170,-360 176,-366 176,-372 176,-372 176,-400 176,-400 176,-406 170,-412 164,-412"/>
<text text-anchor="middle" x="141" y="-400" font-family="sans" font-size="10.00">RunPepGM</text>
<text text-anchor="middle" x="141" y="-389" font-family="sans" font-size="10.00">Prior: 0.5</text>
<text text-anchor="middle" x="141" y="-378" font-family="sans" font-size="10.00">alpha: 0.8</text>
<text text-anchor="middle" x="141" y="-367" font-family="sans" font-size="10.00">beta: 0.4</text>
</g>
<!-- 3&#45;&gt;18 -->
<g id="edge26" class="edge">
<title>3&#45;&gt;18</title>
<path fill="none" stroke="grey" stroke-width="2" d="M235.45,-447.88C220.64,-438.34 201.81,-426.2 184.87,-415.28"/>
<polygon fill="grey" stroke="grey" stroke-width="2" points="186.52,-412.18 176.22,-409.7 182.73,-418.06 186.52,-412.18"/>
</g>
<!-- 20 -->
<g id="node21" class="node">
<title>20</title>
<path fill="none" stroke="#56d882" stroke-width="2" stroke-dasharray="5,2" d="M432,-404C432,-404 382,-404 382,-404 376,-404 370,-398 370,-392 370,-392 370,-380 370,-380 370,-374 376,-368 382,-368 382,-368 432,-368 432,-368 438,-368 444,-374 444,-380 444,-380 444,-392 444,-392 444,-398 438,-404 432,-404"/>
<text text-anchor="middle" x="407" y="-383.5" font-family="sans" font-size="10.00">ClusterTaxa</text>
</g>
<!-- 3&#45;&gt;20 -->
<g id="edge32" class="edge">
<title>3&#45;&gt;20</title>
<path fill="none" stroke="grey" stroke-width="2" d="M294.13,-447.87C313.51,-437.51 338.69,-424.03 361,-412 362.74,-411.06 364.52,-410.1 366.31,-409.13"/>
<polygon fill="grey" stroke="grey" stroke-width="2" points="368.21,-412.08 375.34,-404.24 364.88,-405.93 368.21,-412.08"/>
</g>
<!-- 4 -->
<g id="node5" class="node">
<title>4</title>
<path fill="none" stroke="#5692d8" stroke-width="2" stroke-dasharray="5,2" d="M450.5,-556C450.5,-556 363.5,-556 363.5,-556 357.5,-556 351.5,-550 351.5,-544 351.5,-544 351.5,-532 351.5,-532 351.5,-526 357.5,-520 363.5,-520 363.5,-520 450.5,-520 450.5,-520 456.5,-520 462.5,-526 462.5,-532 462.5,-532 462.5,-544 462.5,-544 462.5,-550 456.5,-556 450.5,-556"/>
<text text-anchor="middle" x="407" y="-535.5" font-family="sans" font-size="10.00">ParseToUnipeptCSV</text>
</g>
<!-- 4&#45;&gt;3 -->
<g id="edge9" class="edge">
<title>4&#45;&gt;3</title>
<path fill="none" stroke="grey" stroke-width="2" d="M371.53,-519.88C351.88,-510.39 327.28,-498.51 306.37,-488.42"/>
<polygon fill="grey" stroke="grey" stroke-width="2" points="307.88,-485.26 297.36,-484.07 304.84,-491.57 307.88,-485.26"/>
</g>
<!-- 4&#45;&gt;20 -->
<g id="edge33" class="edge">
<title>4&#45;&gt;20</title>
<path fill="none" stroke="grey" stroke-width="2" d="M407,-519.79C407,-493.91 407,-444.73 407,-414.03"/>
<polygon fill="grey" stroke="grey" stroke-width="2" points="410.5,-414.01 407,-404.01 403.5,-414.01 410.5,-414.01"/>
</g>
<!-- 22 -->
<g id="node23" class="node">
<title>22</title>
<path fill="none" stroke="#9fd856" stroke-width="2" d="M418,-180C418,-180 294,-180 294,-180 288,-180 282,-174 282,-168 282,-168 282,-156 282,-156 282,-150 288,-144 294,-144 294,-144 418,-144 418,-144 424,-144 430,-150 430,-156 430,-156 430,-168 430,-168 430,-174 424,-180 418,-180"/>
<text text-anchor="middle" x="356" y="-159.5" font-family="sans" font-size="10.00">CalculateMassContribution</text>
</g>
<!-- 4&#45;&gt;22 -->
<g id="edge36" class="edge">
<title>4&#45;&gt;22</title>
<path fill="none" stroke="grey" stroke-width="2" d="M420.15,-519.59C439.15,-492.68 472,-438.65 472,-387 472,-387 472,-387 472,-305 472,-253.79 426.19,-210.87 392.15,-186.04"/>
<polygon fill="grey" stroke="grey" stroke-width="2" points="393.97,-183.04 383.78,-180.12 389.93,-188.75 393.97,-183.04"/>
</g>
<!-- 5 -->
<g id="node6" class="node">
<title>5</title>
<path fill="none" stroke="#56d863" stroke-width="2" stroke-dasharray="5,2" d="M437,-628C437,-628 377,-628 377,-628 371,-628 365,-622 365,-616 365,-616 365,-604 365,-604 365,-598 371,-592 377,-592 377,-592 437,-592 437,-592 443,-592 449,-598 449,-604 449,-604 449,-616 449,-616 449,-622 443,-628 437,-628"/>
<text text-anchor="middle" x="407" y="-607.5" font-family="sans" font-size="10.00">UnipeptQuery</text>
</g>
<!-- 5&#45;&gt;4 -->
<g id="edge10" class="edge">
<title>5&#45;&gt;4</title>
<path fill="none" stroke="grey" stroke-width="2" d="M407,-591.7C407,-583.98 407,-574.71 407,-566.11"/>
<polygon fill="grey" stroke="grey" stroke-width="2" points="410.5,-566.1 407,-556.1 403.5,-566.1 410.5,-566.1"/>
</g>
<!-- 6 -->
<g id="node7" class="node">
<title>6</title>
<path fill="none" stroke="#68d856" stroke-width="2" stroke-dasharray="5,2" d="M442.5,-700C442.5,-700 371.5,-700 371.5,-700 365.5,-700 359.5,-694 359.5,-688 359.5,-688 359.5,-676 359.5,-676 359.5,-670 365.5,-664 371.5,-664 371.5,-664 442.5,-664 442.5,-664 448.5,-664 454.5,-670 454.5,-676 454.5,-676 454.5,-688 454.5,-688 454.5,-694 448.5,-700 442.5,-700"/>
<text text-anchor="middle" x="407" y="-679.5" font-family="sans" font-size="10.00">RunMS2Rescore</text>
</g>
<!-- 6&#45;&gt;5 -->
<g id="edge11" class="edge">
<title>6&#45;&gt;5</title>
<path fill="none" stroke="grey" stroke-width="2" d="M407,-663.7C407,-655.98 407,-646.71 407,-638.11"/>
<polygon fill="grey" stroke="grey" stroke-width="2" points="410.5,-638.1 407,-628.1 403.5,-638.1 410.5,-638.1"/>
</g>
<!-- 7 -->
<g id="node8" class="node">
<title>7</title>
<path fill="none" stroke="#88d856" stroke-width="2" stroke-dasharray="5,2" d="M365,-844C365,-844 289,-844 289,-844 283,-844 277,-838 277,-832 277,-832 277,-820 277,-820 277,-814 283,-808 289,-808 289,-808 365,-808 365,-808 371,-808 377,-814 377,-820 377,-820 377,-832 377,-832 377,-838 371,-844 365,-844"/>
<text text-anchor="middle" x="327" y="-823.5" font-family="sans" font-size="10.00">ExecuteXTandem</text>
</g>
<!-- 7&#45;&gt;6 -->
<g id="edge12" class="edge">
<title>7&#45;&gt;6</title>
<path fill="none" stroke="grey" stroke-width="2" d="M353.74,-807.83C365.97,-798.63 379.59,-786.26 388,-772 399.07,-753.23 403.73,-728.85 405.67,-710.35"/>
<polygon fill="grey" stroke="grey" stroke-width="2" points="409.17,-710.49 406.52,-700.23 402.19,-709.9 409.17,-710.49"/>
</g>
<!-- 12 -->
<g id="node13" class="node">
<title>12</title>
<path fill="none" stroke="#5673d8" stroke-width="2" stroke-dasharray="5,2" d="M367,-772C367,-772 253,-772 253,-772 247,-772 241,-766 241,-760 241,-760 241,-748 241,-748 241,-742 247,-736 253,-736 253,-736 367,-736 367,-736 373,-736 379,-742 379,-748 379,-748 379,-760 379,-760 379,-766 373,-772 367,-772"/>
<text text-anchor="middle" x="310" y="-751.5" font-family="sans" font-size="10.00">createMS2RescoreConfig</text>
</g>
<!-- 7&#45;&gt;12 -->
<g id="edge20" class="edge">
<title>7&#45;&gt;12</title>
<path fill="none" stroke="grey" stroke-width="2" d="M322.8,-807.7C320.9,-799.9 318.62,-790.51 316.52,-781.83"/>
<polygon fill="grey" stroke="grey" stroke-width="2" points="319.92,-781 314.15,-772.1 313.11,-782.65 319.92,-781"/>
</g>
<!-- 8 -->
<g id="node9" class="node">
<title>8</title>
<path fill="none" stroke="#d8b456" stroke-width="2" stroke-dasharray="5,2" d="M350.5,-916C350.5,-916 255.5,-916 255.5,-916 249.5,-916 243.5,-910 243.5,-904 243.5,-904 243.5,-892 243.5,-892 243.5,-886 249.5,-880 255.5,-880 255.5,-880 350.5,-880 350.5,-880 356.5,-880 362.5,-886 362.5,-892 362.5,-892 362.5,-904 362.5,-904 362.5,-910 356.5,-916 350.5,-916"/>
<text text-anchor="middle" x="303" y="-895.5" font-family="sans" font-size="10.00">CreateXTandemInput</text>
</g>
<!-- 8&#45;&gt;7 -->
<g id="edge15" class="edge">
<title>8&#45;&gt;7</title>
<path fill="none" stroke="grey" stroke-width="2" d="M308.93,-879.7C311.61,-871.9 314.83,-862.51 317.8,-853.83"/>
<polygon fill="grey" stroke="grey" stroke-width="2" points="321.2,-854.7 321.14,-844.1 314.58,-852.43 321.2,-854.7"/>
</g>
<!-- 9 -->
<g id="node10" class="node">
<title>9</title>
<path fill="none" stroke="#d8d356" stroke-width="2" stroke-dasharray="5,2" d="M405,-988C405,-988 293,-988 293,-988 287,-988 281,-982 281,-976 281,-976 281,-964 281,-964 281,-958 287,-952 293,-952 293,-952 405,-952 405,-952 411,-952 417,-958 417,-964 417,-964 417,-976 417,-976 417,-982 411,-988 405,-988"/>
<text text-anchor="middle" x="349" y="-973" font-family="sans" font-size="10.00">XTandemTaxonomyInput</text>
<text text-anchor="middle" x="349" y="-962" font-family="sans" font-size="10.00">spectrum_name: S08</text>
</g>
<!-- 9&#45;&gt;7 -->
<g id="edge16" class="edge">
<title>9&#45;&gt;7</title>
<path fill="none" stroke="grey" stroke-width="2" d="M359.09,-951.96C368.48,-933.81 379.81,-904.4 371,-880 367.25,-869.6 360.46,-859.8 353.33,-851.52"/>
<polygon fill="grey" stroke="grey" stroke-width="2" points="355.83,-849.06 346.47,-844.08 350.68,-853.81 355.83,-849.06"/>
</g>
<!-- 9&#45;&gt;8 -->
<g id="edge17" class="edge">
<title>9&#45;&gt;8</title>
<path fill="none" stroke="grey" stroke-width="2" d="M337.63,-951.7C332.28,-943.56 325.8,-933.69 319.89,-924.7"/>
<polygon fill="grey" stroke="grey" stroke-width="2" points="322.66,-922.54 314.24,-916.1 316.81,-926.38 322.66,-922.54"/>
</g>
<!-- 10 -->
<g id="node11" class="node">
<title>10</title>
<path fill="none" stroke="#56b1d8" stroke-width="2" stroke-dasharray="5,2" d="M432,-1060C432,-1060 362,-1060 362,-1060 356,-1060 350,-1054 350,-1048 350,-1048 350,-1036 350,-1036 350,-1030 356,-1024 362,-1024 362,-1024 432,-1024 432,-1024 438,-1024 444,-1030 444,-1036 444,-1036 444,-1048 444,-1048 444,-1054 438,-1060 432,-1060"/>
<text text-anchor="middle" x="397" y="-1039.5" font-family="sans" font-size="10.00">AddDecoysCrap</text>
</g>
<!-- 10&#45;&gt;6 -->
<g id="edge14" class="edge">
<title>10&#45;&gt;6</title>
<path fill="none" stroke="grey" stroke-width="2" d="M408,-1023.94C414.08,-1013.84 421.33,-1000.59 426,-988 440.08,-950.08 445,-939.45 445,-899 445,-899 445,-899 445,-825 445,-783.63 429.77,-737.72 418.59,-709.61"/>
<polygon fill="grey" stroke="grey" stroke-width="2" points="421.72,-708.02 414.69,-700.09 415.24,-710.67 421.72,-708.02"/>
</g>
<!-- 10&#45;&gt;9 -->
<g id="edge18" class="edge">
<title>10&#45;&gt;9</title>
<path fill="none" stroke="grey" stroke-width="2" d="M385.13,-1023.7C379.5,-1015.47 372.65,-1005.48 366.43,-996.42"/>
<polygon fill="grey" stroke="grey" stroke-width="2" points="369.27,-994.37 360.73,-988.1 363.5,-998.33 369.27,-994.37"/>
</g>
<!-- 11 -->
<g id="node12" class="node">
<title>11</title>
<path fill="none" stroke="#d87556" stroke-width="2" stroke-dasharray="5,2" d="M439.5,-1132C439.5,-1132 354.5,-1132 354.5,-1132 348.5,-1132 342.5,-1126 342.5,-1120 342.5,-1120 342.5,-1108 342.5,-1108 342.5,-1102 348.5,-1096 354.5,-1096 354.5,-1096 439.5,-1096 439.5,-1096 445.5,-1096 451.5,-1102 451.5,-1108 451.5,-1108 451.5,-1120 451.5,-1120 451.5,-1126 445.5,-1132 439.5,-1132"/>
<text text-anchor="middle" x="397" y="-1111.5" font-family="sans" font-size="10.00">RemoveDuplicates</text>
</g>
<!-- 11&#45;&gt;10 -->
<g id="edge19" class="edge">
<title>11&#45;&gt;10</title>
<path fill="none" stroke="grey" stroke-width="2" d="M397,-1095.7C397,-1087.98 397,-1078.71 397,-1070.11"/>
<polygon fill="grey" stroke="grey" stroke-width="2" points="400.5,-1070.1 397,-1060.1 393.5,-1070.1 400.5,-1070.1"/>
</g>
<!-- 12&#45;&gt;6 -->
<g id="edge13" class="edge">
<title>12&#45;&gt;6</title>
<path fill="none" stroke="grey" stroke-width="2" d="M333.98,-735.7C346.31,-726.8 361.52,-715.82 374.85,-706.2"/>
<polygon fill="grey" stroke="grey" stroke-width="2" points="377.24,-708.79 383.3,-700.1 373.14,-703.12 377.24,-708.79"/>
</g>
<!-- 13 -->
<g id="node14" class="node">
<title>13</title>
<path fill="none" stroke="#56d8a2" stroke-width="2" stroke-dasharray="5,2" d="M432,-324C432,-324 368,-324 368,-324 362,-324 356,-318 356,-312 356,-312 356,-300 356,-300 356,-294 362,-288 368,-288 368,-288 432,-288 432,-288 438,-288 444,-294 444,-300 444,-300 444,-312 444,-312 444,-318 438,-324 432,-324"/>
<text text-anchor="middle" x="400" y="-303.5" font-family="sans" font-size="10.00">BarPlotResults</text>
</g>
<!-- 13&#45;&gt;0 -->
<g id="edge2" class="edge">
<title>13&#45;&gt;0</title>
<path fill="none" stroke="grey" stroke-width="2" d="M409.35,-287.84C431.3,-244.99 480.11,-132.4 423,-72 383.81,-30.54 314.93,-20.68 272.31,-18.8"/>
<polygon fill="grey" stroke="grey" stroke-width="2" points="272.18,-15.29 262.08,-18.48 271.96,-22.29 272.18,-15.29"/>
</g>
<!-- 13&#45;&gt;19 -->
<g id="edge29" class="edge">
<title>13&#45;&gt;19</title>
<path fill="none" stroke="grey" stroke-width="2" d="M375.78,-287.88C363.08,-278.89 347.34,-267.76 333.58,-258.03"/>
<polygon fill="grey" stroke="grey" stroke-width="2" points="335.5,-255.11 325.31,-252.19 331.46,-260.82 335.5,-255.11"/>
</g>
<!-- 14&#45;&gt;13 -->
<g id="edge21" class="edge">
<title>14&#45;&gt;13</title>
<path fill="none" stroke="grey" stroke-width="2" d="M343.72,-359.89C353.52,-350.68 364.58,-340.29 374.28,-331.17"/>
<polygon fill="grey" stroke="grey" stroke-width="2" points="376.84,-333.57 381.73,-324.17 372.05,-328.47 376.84,-333.57"/>
</g>
<!-- 15 -->
<g id="node16" class="node">
<title>15</title>
<path fill="none" stroke="#56d8a2" stroke-width="2" d="M76,-324C76,-324 12,-324 12,-324 6,-324 0,-318 0,-312 0,-312 0,-300 0,-300 0,-294 6,-288 12,-288 12,-288 76,-288 76,-288 82,-288 88,-294 88,-300 88,-300 88,-312 88,-312 88,-318 82,-324 76,-324"/>
<text text-anchor="middle" x="44" y="-303.5" font-family="sans" font-size="10.00">BarPlotResults</text>
</g>
<!-- 15&#45;&gt;0 -->
<g id="edge3" class="edge">
<title>15&#45;&gt;0</title>
<path fill="none" stroke="grey" stroke-width="2" d="M55.38,-287.97C87.55,-239.8 179.33,-102.37 217.75,-44.83"/>
<polygon fill="grey" stroke="grey" stroke-width="2" points="220.8,-46.57 223.44,-36.31 214.98,-42.68 220.8,-46.57"/>
</g>
<!-- 15&#45;&gt;19 -->
<g id="edge30" class="edge">
<title>15&#45;&gt;19</title>
<path fill="none" stroke="grey" stroke-width="2" d="M88.19,-290.62C91.17,-289.72 94.12,-288.83 97,-288 142.36,-274.84 193.83,-261.48 233.73,-251.47"/>
<polygon fill="grey" stroke="grey" stroke-width="2" points="234.76,-254.82 243.61,-248.99 233.06,-248.03 234.76,-254.82"/>
</g>
<!-- 16&#45;&gt;15 -->
<g id="edge23" class="edge">
<title>16&#45;&gt;15</title>
<path fill="none" stroke="grey" stroke-width="2" d="M47.39,-359.89C46.87,-351.84 46.3,-342.88 45.77,-334.66"/>
<polygon fill="grey" stroke="grey" stroke-width="2" points="49.25,-334.17 45.12,-324.41 42.26,-334.61 49.25,-334.17"/>
</g>
<!-- 17 -->
<g id="node18" class="node">
<title>17</title>
<path fill="none" stroke="#56d8a2" stroke-width="2" stroke-dasharray="5,2" d="M182,-324C182,-324 118,-324 118,-324 112,-324 106,-318 106,-312 106,-312 106,-300 106,-300 106,-294 112,-288 118,-288 118,-288 182,-288 182,-288 188,-288 194,-294 194,-300 194,-300 194,-312 194,-312 194,-318 188,-324 182,-324"/>
<text text-anchor="middle" x="150" y="-303.5" font-family="sans" font-size="10.00">BarPlotResults</text>
</g>
<!-- 17&#45;&gt;0 -->
<g id="edge4" class="edge">
<title>17&#45;&gt;0</title>
<path fill="none" stroke="grey" stroke-width="2" d="M155.06,-287.97C169.29,-240.09 209.72,-104.06 227,-45.9"/>
<polygon fill="grey" stroke="grey" stroke-width="2" points="230.36,-46.89 229.86,-36.31 223.65,-44.89 230.36,-46.89"/>
</g>
<!-- 17&#45;&gt;19 -->
<g id="edge31" class="edge">
<title>17&#45;&gt;19</title>
<path fill="none" stroke="grey" stroke-width="2" d="M186.94,-287.88C207.49,-278.35 233.25,-266.41 255.09,-256.28"/>
<polygon fill="grey" stroke="grey" stroke-width="2" points="256.58,-259.45 264.18,-252.07 253.64,-253.1 256.58,-259.45"/>
</g>
<!-- 18&#45;&gt;17 -->
<g id="edge25" class="edge">
<title>18&#45;&gt;17</title>
<path fill="none" stroke="grey" stroke-width="2" d="M143.9,-359.89C144.84,-351.75 145.88,-342.68 146.84,-334.38"/>
<polygon fill="grey" stroke="grey" stroke-width="2" points="150.32,-334.75 147.99,-324.41 143.37,-333.94 150.32,-334.75"/>
</g>
<!-- 19&#45;&gt;0 -->
<g id="edge5" class="edge">
<title>19&#45;&gt;0</title>
<path fill="none" stroke="grey" stroke-width="2" d="M290.51,-215.85C284.68,-205.72 277.68,-192.47 273,-180 255.96,-134.58 244.86,-79.01 239.29,-46.45"/>
<polygon fill="grey" stroke="grey" stroke-width="2" points="242.7,-45.63 237.6,-36.34 235.79,-46.78 242.7,-45.63"/>
</g>
<!-- 19&#45;&gt;22 -->
<g id="edge35" class="edge">
<title>19&#45;&gt;22</title>
<path fill="none" stroke="grey" stroke-width="2" d="M314.6,-215.7C321.12,-207.39 329.07,-197.28 336.25,-188.14"/>
<polygon fill="grey" stroke="grey" stroke-width="2" points="339.13,-190.13 342.56,-180.1 333.63,-185.81 339.13,-190.13"/>
</g>
<!-- 20&#45;&gt;19 -->
<g id="edge27" class="edge">
<title>20&#45;&gt;19</title>
<path fill="none" stroke="grey" stroke-width="2" d="M387.35,-367.88C374.81,-356.31 358.77,-340.24 347,-324 332.81,-304.42 320.47,-279.86 312.15,-261.5"/>
<polygon fill="grey" stroke="grey" stroke-width="2" points="315.31,-260 308.07,-252.27 308.91,-262.83 315.31,-260"/>
</g>
<!-- 21 -->
<g id="node22" class="node">
<title>21</title>
<path fill="none" stroke="#56d0d8" stroke-width="2" d="M402,-108C402,-108 300,-108 300,-108 294,-108 288,-102 288,-96 288,-96 288,-84 288,-84 288,-78 294,-72 300,-72 300,-72 402,-72 402,-72 408,-72 414,-78 414,-84 414,-84 414,-96 414,-96 414,-102 408,-108 402,-108"/>
<text text-anchor="middle" x="351" y="-87.5" font-family="sans" font-size="10.00">PlotMassContributions</text>
</g>
<!-- 21&#45;&gt;0 -->
<g id="edge6" class="edge">
<title>21&#45;&gt;0</title>
<path fill="none" stroke="grey" stroke-width="2" d="M322.62,-71.88C307.12,-62.52 287.75,-50.83 271.17,-40.83"/>
<polygon fill="grey" stroke="grey" stroke-width="2" points="272.66,-37.64 262.29,-35.47 269.04,-43.63 272.66,-37.64"/>
</g>
<!-- 22&#45;&gt;21 -->
<g id="edge34" class="edge">
<title>22&#45;&gt;21</title>
<path fill="none" stroke="grey" stroke-width="2" d="M354.76,-143.7C354.21,-135.98 353.55,-126.71 352.94,-118.11"/>
<polygon fill="grey" stroke="grey" stroke-width="2" points="356.43,-117.83 352.22,-108.1 349.44,-118.33 356.43,-117.83"/>
</g>
</g>
</svg>
